<svg width="600" height="600" viewBox="0 0 600 600" fill="none" xmlns="http://www.w3.org/2000/svg">
<g clip-path="url(#clip0_1050_334)">
<path d="M300 -1.31134e-05L600 0L600 300L600 600L300 600L-2.62268e-05 600L-1.31134e-05 300L0 -2.62268e-05L300 -1.31134e-05Z" fill="url(#paint0_linear_1050_334)"/>
<path d="M11.7769 7.75838C156.41 9.72604 301.112 22.8077 445.698 12.2036C496.697 10.2383 547.481 8.32242 598.513 7.84164C557.666 21.7034 514.15 12.676 472.073 17.2845C360.81 17.9934 249.276 27.7936 138.253 16.3675C95.2541 13.6231 52.1792 11.8643 9.08442 11.8808C-1.42875 8.75609 6.79602 5.77928 11.7707 7.75831L11.7769 7.75838ZM41.2185 48.9368C188.368 45.21 335.822 38.3717 482.819 49.346C521.457 49.4539 560.168 47.7059 598.736 50.795C463.082 51.2643 342.764 54.6362 214.11 47.4862C136.883 55.2716 94.8924 47.8363 31.9587 57.273C5.94829 58.6722 9.14298 42.5988 32.6366 48.9561L36.931 49.0206L41.2185 48.9368ZM3.17268 61.2441C210.645 55.7013 393.136 56.611 584.044 61.0272C588.654 78.3626 545.345 62.2928 532.348 67.1969C349.271 52.4148 177.936 73.8871 8.05309 69.2653C5.00264 68.1662 1.56443 64.9012 3.16937 61.2442L3.17268 61.2441ZM11.0748 75.3626C57.1863 80.7624 103.602 78.0519 149.55 72.8538C254.24 65.5794 359.293 65.0507 464.066 70.685C504.111 72.4036 545.497 70.6556 584.595 77.202C562.664 83.3779 535.613 76.0484 511.632 76.2137C482.581 74.3966 453.436 72.9886 424.334 74.4036C479.53 80.6756 535.508 76.508 590.448 85.5643C511.76 83.7988 433.313 75.4236 354.529 75.6779C268.226 74.1085 182.012 80.4831 96.3676 90.4494C70.7481 91.9495 25.8997 91.0251 12.2664 87.5324C53.3793 85.2288 94.8317 91.6333 135.593 83.3929C562.83 67.8266 329.697 69.2427 62.1475 83.7926C49.3898 83.2883 9.40072 87.051 11.0782 75.3626L11.0748 75.3626ZM296.395 68.4739C294.269 64.8488 293.917 72.2809 296.395 68.4739V68.4739ZM2.34176 108.205C93.3824 113.392 184.646 111.459 275.733 115.729C346.018 88.8902 422.473 99.1787 495.626 103.167C522.375 113.391 582.906 93.3944 588.269 117.473C541.44 122.785 492.729 108.858 447.16 126.172C417.358 140.209 384.652 142.321 352.16 141.168C286.103 135.454 202.926 145.497 128.825 154.392C95.9942 158.08 63.009 157.37 30.1761 160.444C14.061 161.762 0.711051 146.491 25.3924 149.83C59.9497 147.568 95.4236 153.226 129.424 146.219C132.033 122.042 86.5958 133.427 68.6768 127.075C46.6009 122.661 16.732 126.224 1.00132e-05 112.912L0.825941 110.229L2.33359 108.207L2.34176 108.205ZM10.4895 123.346C31.5165 131.06 88.7888 123.988 87.9951 143.205C66.1849 147.073 24.982 148.518 14.6183 142.282C28.4002 140.71 72.7604 152.57 66.0585 133.786C49.412 131.278 27.8746 134.529 10.4895 123.347L10.4895 123.346ZM7.27015 161.098C96.8136 169.28 186.191 155.877 275.054 146.487C325.525 142.488 376.254 142.684 426.793 145.362C446.322 143.868 474.899 105.694 475.344 141.488C502.355 152.637 532.438 139.595 560.793 142.878C606.008 152.013 521.239 132.959 533.771 154.591C547.622 155.727 599.127 162.142 559.991 158.931C433.328 144.884 304.312 138.597 178.328 161.872C132.661 166.161 86.7461 166.174 40.9881 169.073C32.2712 159.901 14.3092 170.841 7.26312 161.098L7.27015 161.098ZM5.80686 167.7C35.2344 176.98 66.8522 167.893 95.2332 179.456C111.579 183.083 159.284 169.231 158.536 177.47C108.651 184.789 57.4707 182.467 8.40101 172.144C6.10667 171.601 6.3032 169.487 5.81118 167.7L5.80686 167.7ZM2.58761 179.536C33.1437 188.534 65.6371 184.76 95.7741 192.859C199.147 187.122 302.568 163.611 399.345 165.556C433.848 169.325 469.804 155.446 503.089 170.539C529.356 173.993 562.405 165.226 583.236 176.835C612.566 194.632 556.202 181.406 545.508 180.643C462.608 170.774 407.56 178.458 295.46 176.693C218.314 197.771 139.296 202.393 65.499 198.587C50.8285 195.587 -2.27991 192.975 2.59229 179.535L2.58761 179.536ZM10.1968 224.391C106.874 231.278 204.336 234.08 300.797 222.724C275.793 219.322 278.227 200.525 302.561 203.515C354.865 193.504 409.396 183.174 461.85 198.315C496.642 205.981 530.82 217.796 566.651 219.638C556.982 214.711 512.486 202.436 545.518 209.891C559.06 205.856 606.73 228.624 571.049 226.636C560.162 224.156 517.29 215.513 524.522 224.333C547.707 227.401 606.199 223.475 589.119 261.875C547.37 265.573 505.424 267.261 464.797 278.098C436.269 277.721 397.29 280.572 375.825 263.22C396.529 253.558 429.21 264.497 444.166 247.973C406.217 226.067 386.562 242.918 319.727 239.56C208.189 222.6 111.423 267.73 7.41177 246.65C30.6736 242.048 -4.8612 244.589 17.5687 239.073C50.0809 235.379 83.1105 244.521 115.108 233.639C80.2202 231.38 43.2421 242.513 9.38129 229.836C0.32229 223.152 1.23282 224.23 10.2051 224.39L10.1968 224.391ZM7.24583 226.742C5.11959 223.117 4.76758 230.549 7.24583 226.742V226.742ZM221.894 234.984C269.209 235.34 329.632 229.668 383.572 225.959C373.742 218.525 325.493 217.332 359.319 206.338C397.169 191.004 436.99 208.416 473.251 219.978C487.974 225.696 501.217 211.476 479.293 212.955C440.174 203.465 399.58 193.238 359.161 200.257C333.891 193.186 319.65 224.827 345.162 225.161C320.033 232.85 292.154 228.406 265.939 232.21C235.98 233.766 205.953 234.542 175.963 233.414C191.208 235.276 206.594 234.314 221.899 234.984L221.894 234.984ZM327.781 212.371C336.704 209.077 322.946 216.839 327.781 212.371V212.371ZM10.4908 251.614C24.3817 242.873 54.782 267.014 23.6699 263.698C14.811 265.8 -14.0388 257.482 10.4908 251.614ZM0.833019 267.042C43.0826 270.943 84.0656 257.776 125.026 250.509C211.971 243.363 299.955 237.957 386.676 250.659C380.699 258.504 329.181 256.582 352.697 267.813C375.855 266.309 378.669 294.009 352.285 285.178C250.08 291.74 147.575 288.711 45.2965 293.391C147.73 285.829 250.72 290.762 353.034 281.027C360.868 264.324 301.303 269.918 333.107 255.165C287.623 240.38 238.992 247.28 192.091 247.407C129.591 251.441 68.2727 271.741 5.36246 267.832L0.833019 267.042ZM31.855 297.014C108.609 292.067 268.57 290.242 387.32 291.122C457.088 299.352 527.656 303.773 597.801 297.832C588.21 312.213 532.221 300.247 573.197 304.098C593.341 302.367 594.814 308.646 574.154 307.078C502.035 305.708 429.778 309.512 357.843 302.476C326.664 300.072 295.946 306.384 264.847 301.077C178.759 299.6 92.7394 307.099 6.62714 306.297C-7.44746 292.267 26.1183 299.266 31.8567 297.014L31.855 297.014ZM41.2201 304.094C58.1733 302.065 80.5946 304.108 94.1576 300.201C76.5266 301.382 58.2857 298.107 41.2201 304.094ZM2.58898 319.685C94.0277 314.477 187.843 317.405 300.529 319.118C381.827 325.349 463.692 332.582 544.97 322C558.342 318.699 613.227 323.502 575.853 326.568C529.747 329.378 483.555 331.331 437.366 332.33C408.471 332.537 379.578 332.097 350.687 331.734C382.217 346.282 418.488 335.864 451.94 338.929C492.81 335.458 533.828 334.729 574.506 330.196C607.452 341.122 554.305 343.38 542.796 343.231C347.042 354.028 179.336 327.655 2.59252 338.22C114.843 312.344 239.179 338.591 345.145 336.071C304.214 320.493 267.822 331.596 201.496 322.6C154.593 321.267 107.597 322.21 60.8436 326.28C39.8844 312.777 22.1773 342.537 2.57493 319.685L2.58898 319.685ZM2.00368 367.969C51.5065 365.763 100.273 353.481 150.055 356.457C293.212 353.441 436.019 367.2 579.129 367.816C594.835 379.289 543.392 369.799 533.601 370.663C410.66 367.896 259.694 356.364 121.945 361.462C87.9334 357.633 65.5578 378.01 32.0529 373.997C22.2094 373.084 5.83869 382.671 1.99665 367.969L2.00368 367.969ZM4.93025 380.179C56.7299 386.385 107.965 374.36 158.659 365.921C226.866 359.129 295.401 364.553 363.72 366.166C325.415 373.404 286.178 366.048 247.455 368.631C201.956 368.485 157.11 376.832 112.457 384.03C76.2749 386.819 39.7989 386.603 3.74205 382.305L3.60247 380.902L4.93025 380.179ZM1.14863 389.421C74.8674 392.826 149.352 391.539 221.744 376.305C328.097 370.365 435.035 372.023 540.802 385.339C554.024 384.5 598.211 382.399 585.185 402.225C533.556 400.762 482.91 389.352 431.702 384.034C255.087 379.216 261.175 381.278 207.559 394.896C165.31 397.832 122.619 401.779 80.4865 401.825C53.6308 400.085 17.9555 410.934 2.15539 390.45L1.17216 390.085L1.13422 389.422L1.14863 389.421ZM81.8994 408.167C225.326 410.022 369.221 389.141 512.18 408.244C531.424 408.256 582.541 406.752 581.365 412.926C451.026 407.528 320.382 400.479 190.067 410.037C126.969 412.194 63.8364 413.828 0.692105 413.051C26.2835 400.075 55.0145 412.665 81.9064 408.167L81.8994 408.167ZM4.92983 451.858C47.6875 451.758 90.4264 454.456 132.904 459.233C119.009 493.437 75.4503 463.843 48.3313 470.386C35.6778 469.848 -4.44115 476.157 4.92514 451.858L4.92983 451.858ZM4.92982 478.484C19.8251 481.117 69.4133 484.462 29.8773 484.425C21.2966 484.243 12.3997 483.016 4.92982 478.484ZM8.44176 515.474C158.857 513.283 309.413 539.901 459.56 520.262C504.547 512.713 550.067 513.946 595.459 515.726C541.043 528.521 482.151 517.044 466.373 526.398C345.797 535.934 224.799 529.474 104.071 527.729C72.3177 521.318 29.8036 525.009 4.06469 516.268L8.44176 515.474ZM14.295 524.245C53.4154 529.071 92.0489 541.504 131.687 533.675C226.709 531.553 321.752 533.697 416.773 534.081C287.113 535.717 157.078 535.682 27.6285 536.876C19.2499 537.064 -11.0049 521.347 14.2856 524.245L14.295 524.245ZM161.772 533.888C159.646 530.263 159.294 537.695 161.772 533.888V533.888ZM26.5515 553.358C35.8111 559.623 56.4216 547.183 34.3206 548.709C113.786 553.455 194.043 561.941 273.096 548.196C342.361 544.548 411.688 551.213 481.06 549.852C518.259 552.533 558.458 545.026 593.828 555.669C614.56 584.167 578.52 611.329 552.792 595.154C386.222 601.433 219.499 599.529 52.8471 598.067C29.2775 602.772 -3.0568 590.142 0.702125 564.183C4.83765 554.202 16.905 550.17 26.5581 553.358L26.5515 553.358ZM329.49 581.658C404.197 585.148 479.086 582.724 553.597 576.572C524.832 561.927 490.18 573.741 459.132 568.301C412.864 568.696 366.695 573.029 320.938 579.753C323.702 580.902 326.513 581.48 329.495 581.658L329.49 581.658ZM340.513 576.637C347.399 575.11 338.344 579.31 340.513 576.637V576.637ZM453.26 597.182C451.134 593.557 450.782 600.989 453.26 597.182V597.182ZM457.943 597.182C455.816 593.557 455.464 600.989 457.943 597.182V597.182ZM6.88326 374.989C13.769 373.462 4.71359 377.662 6.88326 374.989V374.989ZM26.0221 250.357C38.8886 244.261 26.3905 256.359 26.0221 250.357V250.357ZM44.0733 433.16C40.7252 417.888 68.631 439.719 58.4277 422.519C173.434 419.904 288.447 413.384 403.497 414.914C433.51 416.185 463.819 419.983 493.587 419.269C515.862 437.579 466.303 431.108 453.635 435.377C424.062 436.981 394.968 441.718 366.208 448.275C299.334 464.837 434.367 470.784 457.185 475.064C480.445 480.772 514.071 473.497 530.754 490.691C505.475 500.132 476.749 498.245 450.188 503.825C361.009 515.159 269.067 519.026 180.789 501.114C214.135 484.384 255.009 484.14 291.254 473.768C267.68 481.064 311.659 461.447 281.948 461.159C234.544 454.582 187.035 448.418 139.598 441.829C107.916 437.698 75.5152 436.559 43.9734 434.345L44.077 433.161L44.0733 433.16ZM145.378 427.204C143.252 423.578 142.9 431.01 145.378 427.204V427.204ZM305.615 442.403C343.118 436.685 380.971 433.305 418.258 426.189C380.117 414.297 339.216 420.868 299.918 420.924C266.026 422.596 231.878 421.362 198.254 426.687C182.647 451.172 295.794 443.114 305.618 442.403L305.615 442.403ZM246.904 501.6C324.731 513.621 404.11 506.259 481.126 492.066C448.404 468.36 406.333 481.685 369.313 475.449C327.578 477.636 284.741 482.529 246.911 501.6L246.904 501.6ZM44.9454 177.94C53.9161 176.108 41.4568 182.17 44.9454 177.94V177.94ZM61.112 403.757C76.8114 405.263 53.0717 405.891 61.112 403.757V403.757ZM88.9252 507.761C105.75 504.824 111.047 512.812 89.7728 510.308C75.0672 510.726 64.789 505.775 88.9252 507.761ZM69.8227 483.788C84.108 478.248 116.117 486.486 82.5453 485.202C78.2783 485.257 73.9166 485.161 69.8227 483.788ZM78.3099 138.076C85.4278 136.602 74.9658 141.816 78.3099 138.076V138.076ZM84.2333 327.046C93.2106 326.913 79.3432 328.691 84.2333 327.046V327.046ZM93.0131 327.137C102.526 328.023 83.5 328.023 93.0131 327.137V327.137ZM94.6716 156.924C101.557 155.398 92.5019 159.598 94.6716 156.924V156.924ZM102.374 327.09C110.44 327.734 94.3083 327.734 102.374 327.09V327.09ZM142.761 7.08757C282.372 18.1061 262.799 5.69707 147.128 8.99063C136.815 8.6251 121.912 6.55299 142.761 7.08757ZM133.545 271.239C155.635 271.435 212.681 257 214.359 271.823C188.113 278.14 161.712 283.56 133.545 271.239ZM153.586 50.9097C181.92 47.7108 166.278 55.4599 147.232 51.8376L153.586 50.9097ZM181.584 55.6166C186.395 47.6079 189.387 58.2851 181.584 55.6166V55.6166ZM199.402 166.207C259.343 156.833 320.34 157.108 380.862 155.571C444.483 154.571 459.093 149.923 582.88 166.804C568.058 174.109 522.682 158.301 496.745 160.14C432.977 157.277 369.028 158.552 305.252 159.613C273.749 175.913 219.034 136.308 199.413 166.207L199.402 166.207ZM277.577 47.8006C92.2645 15.757 184.922 31.7782 277.577 47.8006V47.8006ZM294.844 221.764C301.327 213.462 303.34 224.976 294.844 221.764V221.764ZM329.964 330.423C336.85 328.896 327.795 333.096 329.964 330.423V330.423ZM347.524 331.595C354.409 330.068 345.354 334.268 347.524 331.595V331.595ZM353.377 276.495C360.263 274.968 351.207 279.168 353.377 276.495V276.495ZM369.93 512.042C374.145 516.506 361.833 511.158 369.93 512.042V512.042ZM407.905 367.398C468.315 368.599 528.856 371.149 588.711 379.823C556.156 389.311 523.891 371.613 491.001 373.31C457.366 371.109 423.498 372.035 390.052 367.306C396 366.863 401.953 367.438 407.904 367.398L407.905 367.398ZM417.758 598.877C424.644 597.35 415.589 601.55 417.758 598.877V598.877ZM419.322 532.726C464.698 530.793 489.409 521.473 586.641 523.746C582.232 539.493 540.142 527.007 521.603 531.569C487.536 532.652 453.347 536.653 419.317 532.726L419.322 532.726ZM529.335 530.324C527.209 526.699 526.857 534.131 529.335 530.324V530.324ZM427.797 599.117C437.31 600.003 418.284 600.003 427.797 599.117V599.117ZM438.451 251.166C453.756 247.351 432.697 255.742 438.451 251.166V251.166ZM440.57 285.786C487.904 279.443 535.318 273.675 582.755 268.165C560.057 281.462 528.777 274.772 502.767 279.513C487.001 278.306 468.897 295.206 495.628 295.684C518.494 299.591 565.325 291.391 573.75 295.805C529.779 297.66 484.858 300.909 441.784 289.644C453.166 292.58 440.623 288.26 440.568 285.785L440.57 285.786ZM441.457 399.112C466.297 399.917 520.746 403.544 526.463 406.349C498.011 405.695 469.664 402.775 441.457 399.112ZM448.036 187.61C462.459 188.354 495.118 199.433 461.546 193.769C456.63 193.023 451.503 191.423 448.036 187.61ZM464.671 597.625C474.622 599.126 453.281 599.418 464.671 597.625V597.625ZM476.857 287.119C482.381 283.699 474.611 293.63 476.857 287.119V287.119ZM489.254 597.918C500.207 598.252 482.096 599.08 489.254 597.918V597.918ZM496.806 128.688C545.041 121.221 621.667 132.628 534.902 137.247C522.187 135.687 508.146 135.3 496.806 128.688ZM512.342 455.279C534.391 456.299 589.733 438.163 587.306 465.514C561.743 472.583 537.442 457.12 512.342 455.279ZM512.569 494.545C519.455 493.019 510.4 497.219 512.569 494.545V494.545ZM518.521 267.78C523.62 270.15 510.03 268.706 518.521 267.78V267.78ZM534.813 136.993C541.698 135.467 532.643 139.667 534.813 136.993V136.993ZM565.249 384.357C572.135 382.83 563.08 387.03 565.249 384.357V384.357Z" fill="url(#paint1_linear_1050_334)"/>
</g>
<defs>
<linearGradient id="paint0_linear_1050_334" x1="600" y1="300" x2="-1.31134e-05" y2="300" gradientUnits="userSpaceOnUse">
<stop stop-color="#9A601F"/>
<stop offset="1" stop-color="#835016"/>
</linearGradient>
<linearGradient id="paint1_linear_1050_334" x1="600" y1="303.5" x2="-1.29604e-05" y2="303.5" gradientUnits="userSpaceOnUse">
<stop stop-color="#915A29"/>
<stop offset="1" stop-color="#72441B"/>
</linearGradient>
<clipPath id="clip0_1050_334">
<rect width="600" height="600" fill="white" transform="translate(600) rotate(90)"/>
</clipPath>
</defs>
</svg>
